<svg preserveAspectRatio="none" width="100%" height="100%" overflow="visible" style="display: block;" viewBox="0 0 14.7846 16" fill="none" xmlns="http://www.w3.org/2000/svg">
<path id="Gong Logo" d="M14.42 6.84456H10.0837C9.8787 6.84456 9.71095 7.01854 9.71719 7.22353C9.71719 7.26082 9.72339 7.2981 9.73583 7.33535L10.7795 10.0378C10.8168 10.131 10.7671 10.2366 10.6739 10.2676C10.6491 10.2739 10.6242 10.2801 10.5994 10.2801L9.26368 10.1993C9.20155 10.1931 9.14562 10.2242 9.10834 10.2739L8.07086 11.7462C8.01497 11.8332 7.90312 11.858 7.82238 11.8021C7.82238 11.8021 7.82238 11.8021 7.81614 11.8021L6.28167 10.7584C6.21954 10.7149 6.13877 10.7149 6.08287 10.7584L3.95819 12.1997C3.87742 12.2557 3.7656 12.237 3.70971 12.1562C3.67863 12.1128 3.67243 12.0569 3.68486 12.0071L4.27504 9.8887C4.29988 9.80172 4.2564 9.70852 4.16942 9.67747L3.04497 9.21775C2.95176 9.18047 2.90828 9.08106 2.94556 8.98788C2.95179 8.96924 2.9642 8.95683 2.97664 8.93819L3.97063 7.70812C4.02032 7.64599 4.02032 7.55902 3.97683 7.49689L3.14435 6.28546C3.08846 6.20469 3.1071 6.09287 3.18784 6.03695C3.21271 6.01831 3.24376 6.0059 3.28104 6.0059L4.57945 5.90649C4.67886 5.90028 4.74719 5.81952 4.74719 5.7201L4.64778 3.89986C4.64157 3.80045 4.72234 3.71348 4.82173 3.70727C4.84657 3.70727 4.87145 3.71348 4.89629 3.71968L6.50533 4.38442C6.57367 4.4155 6.65441 4.39686 6.70413 4.33473L7.80994 3.09222C7.87827 3.01769 7.99009 3.01148 8.06466 3.07981C8.0833 3.09845 8.09571 3.11707 8.10814 3.14194L8.77288 4.85657C8.84742 5.03675 9.05865 5.12373 9.2388 5.04916C9.26368 5.03675 9.29473 5.02431 9.31337 5.00567L11.9226 3.06738C12.0779 2.94935 12.1152 2.7319 11.9971 2.57038C11.9226 2.46477 11.7921 2.40886 11.6617 2.42749L9.94083 2.65736C9.86006 2.66978 9.78552 2.62008 9.75444 2.54553L8.84742 0.22206C8.77288 0.0418981 8.56786 -0.0450765 8.38771 0.0232608C8.33802 0.0418984 8.29453 0.0729607 8.25725 0.116448L6.2941 2.24733C6.24438 2.30324 6.16364 2.31567 6.09528 2.29082L3.51089 1.19742C3.33074 1.12287 3.11951 1.20363 3.03876 1.39001C3.02012 1.42728 3.01389 1.47077 3.01389 1.51426L2.92071 4.17942C2.91451 4.2726 2.84618 4.34093 2.75298 4.35337L0.392232 4.50868C0.193432 4.52111 0.0505448 4.68883 0.0629696 4.88765C0.0691821 4.94978 0.0878197 5.01188 0.125095 5.0616L1.69685 7.37884C1.74034 7.44717 1.74034 7.53417 1.68443 7.59627L0.0878197 9.42895C-0.0426426 9.57806 -0.0240051 9.80172 0.118882 9.92598C0.149944 9.95083 0.181007 9.96947 0.21207 9.98808L2.05718 10.7833C2.13794 10.8144 2.18143 10.9075 2.15658 10.9883L0.988632 15.5545C0.938932 15.7471 1.05697 15.9397 1.24334 15.9894C1.34895 16.0142 1.45457 15.9956 1.54154 15.9334L5.93377 12.7837C5.9959 12.7402 6.07667 12.7402 6.13877 12.7837L8.13919 14.1877C8.30073 14.2996 8.52437 14.2623 8.63619 14.1007L8.64242 14.0945L9.89113 12.1749C9.92839 12.119 9.99675 12.0879 10.0651 12.1004L13.0533 12.4607C13.2956 12.4979 13.5379 12.2929 13.4509 12.0693L12.2084 8.84498C12.1711 8.75181 12.2208 8.64619 12.314 8.60891L14.5878 7.53417C14.9232 7.36643 14.8052 6.84456 14.42 6.84456Z" fill="var(--fill-0, #8039E9)"/>
</svg>
