<svg preserveAspectRatio="none" width="100%" height="100%" overflow="visible" style="display: block;" viewBox="0 0 16 16" fill="none" xmlns="http://www.w3.org/2000/svg">
<path id="Hubspot" fill-rule="evenodd" clip-rule="evenodd" d="M11.6232 11.5298C10.3839 11.5298 9.37921 10.5711 9.37921 9.38857C9.37921 8.20588 10.3839 7.24716 11.6232 7.24716C12.8626 7.24716 13.8673 8.20588 13.8673 9.38857C13.8673 10.5711 12.8626 11.5298 11.6232 11.5298ZM12.295 5.26601V3.36109C12.8161 3.12624 13.1811 2.62324 13.1811 2.0395V1.99553C13.1811 1.18988 12.4903 0.530732 11.6461 0.530732H11.6002C10.756 0.530732 10.0652 1.18988 10.0652 1.99553V2.0395C10.0652 2.62324 10.4302 3.12644 10.9512 3.3613V5.26601C10.1755 5.38046 9.46663 5.68578 8.88205 6.13515L3.40115 2.06662C3.43732 1.9341 3.46273 1.79766 3.46295 1.65425C3.46381 0.741956 2.68996 0.00123389 1.73352 1.07035e-06C0.777511 -0.00102628 0.00107771 0.737641 1.12195e-06 1.65014C-0.00107546 2.56263 0.772774 3.30335 1.72921 3.30438C2.04078 3.30479 2.3293 3.22034 2.58208 3.08309L7.97341 7.08545C7.515 7.74583 7.24628 8.5369 7.24628 9.38857C7.24628 10.2801 7.54148 11.1049 8.04016 11.7831L6.40073 13.3478C6.27111 13.3106 6.13675 13.2847 5.99421 13.2847C5.20852 13.2847 4.5714 13.8925 4.5714 14.6423C4.5714 15.3922 5.20852 16 5.99421 16C6.78012 16 7.41703 15.3922 7.41703 14.6423C7.41703 14.5066 7.3899 14.3782 7.35093 14.2545L8.9727 12.7069C9.70887 13.243 10.6257 13.5652 11.6232 13.5652C14.0406 13.5652 16 11.6952 16 9.38857C16 7.30037 14.3924 5.57524 12.295 5.26601Z" fill="var(--fill-0, #FF7A59)"/>
</svg>
