<svg preserveAspectRatio="none" width="100%" height="100%" overflow="visible" style="display: block;" viewBox="0 0 16 14" fill="none" xmlns="http://www.w3.org/2000/svg">
<g id="Group">
<path id="Vector" d="M4.64464 5.77618H6.67848C6.16922 5.48353 5.97905 5.07559 5.72442 4.31883L4.96052 1.7234C4.61241 0.555743 4.32554 0.00295608 2.92667 0.00295608H0.00322321V0.703547H0.419017C1.27639 0.703547 1.37309 0.996199 1.62772 1.8712L2.29492 4.14738C2.64303 5.25296 3.18775 5.77618 4.64464 5.77618ZM9.35375 5.77618H11.3876C12.8509 5.77618 13.357 5.25 13.7083 4.14443L14.3755 1.86824C14.6301 0.993243 14.7558 0.700591 15.5842 0.700591H16V0H13.1056C11.6745 0 11.3876 0.526182 11.0685 1.72044L10.3046 4.31588C10.0532 5.1022 9.85979 5.48353 9.35375 5.77618ZM6.68171 8.22382H9.35375V5.77323H6.68171V8.22382ZM0.00322321 14H2.92667C4.32554 14 4.61241 13.4443 4.96052 12.2796L5.72442 9.68412C5.97905 8.92736 6.16922 8.51647 6.67848 8.22677H4.64464C3.18131 8.22677 2.63981 8.75296 2.2917 9.85853L1.6245 12.1347C1.36986 13.0097 1.27639 13.3024 0.415794 13.3024H0L0.00322321 14ZM13.1023 14H15.9968V13.2994H15.581C14.7558 13.2994 14.6269 13.0068 14.3723 12.1318L13.7051 9.85557C13.357 8.74704 12.8477 8.22382 11.3844 8.22382H9.35375C9.86301 8.51647 10.0467 8.89485 10.3014 9.68117L11.0653 12.2766C11.3844 13.4738 11.6712 14 13.1023 14Z" fill="var(--fill-0, #7856FF)"/>
</g>
</svg>
