<svg preserveAspectRatio="none" width="100%" height="100%" overflow="visible" style="display: block;" viewBox="0 0 16 16" fill="none" xmlns="http://www.w3.org/2000/svg">
<path id="Vector" fill-rule="evenodd" clip-rule="evenodd" d="M7.1152 0C9.5656 0 13.268 0.801193 14.992 2.63712C15.4288 3.10249 16 4.01364 16 5.34924C16 7.72384 14.204 11.3667 12.2216 13.4805C11.1968 14.5715 9.5656 16 7.372 16C5.228 16 3.5904 14.4479 3.116 13.9425C1.3008 12.0077 0 9.07053 0 6.33284C0 4.60601 0.4624 3.09397 1.6416 1.83848C2.7336 0.673343 4.616 0 7.1152 0ZM9.9344 9.48647C10.7616 8.6043 10.9848 7.51758 10.9848 6.92095C10.9848 6.48711 10.8776 5.85212 10.3688 5.31004C9.588 4.47901 8.7248 4.24462 7.7848 4.24462C6.5936 4.24462 5.7936 4.64522 5.2608 5.21287C4.8424 5.65779 4.4816 6.34306 4.4816 7.31472C4.4816 8.28638 4.968 9.22566 5.4976 9.79075C5.988 10.3115 6.7568 10.6985 7.532 10.6985C8.308 10.6985 9.1072 10.3678 9.9344 9.48647Z" fill="var(--fill-0, #5951FF)"/>
</svg>
