<svg preserveAspectRatio="none" width="100%" height="100%" overflow="visible" style="display: block;" viewBox="0 0 47.864 48" fill="none" xmlns="http://www.w3.org/2000/svg">
<path id="Vector" d="M46.834 11.812C46.2783 9.16724 44.9667 6.74072 43.0584 4.8271C41.1501 2.91347 38.7272 1.59507 36.084 1.032C33.386 0.408 28.948 0 23.932 0C18.916 0 14.478 0.408 11.78 1.032C9.1368 1.59507 6.71394 2.91347 4.80565 4.8271C2.89735 6.74072 1.58571 9.16724 1.03 11.812C0.406 14.52 0 18.97 0 24C0 29.03 0.406 33.48 1.03 36.188C1.58571 38.8328 2.89735 41.2593 4.80565 43.1729C6.71394 45.0865 9.1368 46.4049 11.78 46.968C14.478 47.592 18.916 48 23.932 48C28.948 48 33.386 47.592 36.084 46.968C38.7272 46.4049 41.1501 45.0865 43.0584 43.1729C44.9667 41.2593 46.2783 38.8328 46.834 36.188C47.456 33.48 47.864 29.032 47.864 24C47.864 18.97 47.458 14.52 46.834 11.812ZM35.088 36.604L35.082 36.606C34.226 36.91 32.752 37.172 30.878 37.36L30.584 37.388C30.3958 37.4052 30.2071 37.3619 30.0452 37.2644C29.8834 37.1669 29.7568 37.0203 29.684 36.846C29.4574 36.3054 29.1033 35.8276 28.6519 35.4536C28.2005 35.0795 27.6653 34.8203 27.092 34.698C26.39 34.536 25.236 34.43 23.932 34.43C22.628 34.43 21.474 34.536 20.772 34.698C20.203 34.8195 19.6715 35.0758 19.2222 35.4454C18.7729 35.815 18.4189 36.2871 18.19 36.822C18.1126 37.0032 17.9797 37.1553 17.8104 37.2563C17.6412 37.3572 17.4443 37.402 17.248 37.384C17.1621 37.3753 17.0761 37.3673 16.99 37.36C15.114 37.172 13.638 36.912 12.78 36.606L12.774 36.604C12.4843 36.4948 12.2348 36.2998 12.0589 36.0449C11.8831 35.7901 11.7893 35.4876 11.79 35.178C11.79 35.114 11.796 35.046 11.8 34.982C11.946 33.024 13.132 28.438 14.904 23.202C16.932 17.218 19.05 12.374 20.006 11.428C20.2305 11.1933 20.5074 11.0151 20.814 10.908L20.822 10.904C21.45 10.692 22.606 10.548 23.93 10.548C25.256 10.548 26.412 10.69 27.038 10.904L27.048 10.908C27.3554 11.0146 27.6331 11.1928 27.858 11.428C28.814 12.372 30.932 17.218 32.956 23.202C34.728 28.436 35.914 33.022 36.06 34.982C36.064 35.046 36.07 35.114 36.07 35.178C36.0709 35.4874 35.9774 35.7897 35.8019 36.0445C35.6264 36.2993 35.3774 36.4945 35.088 36.604Z" fill="var(--fill-0, #00B387)"/>
</svg>
