<svg preserveAspectRatio="none" width="100%" height="100%" overflow="visible" style="display: block;" viewBox="0 0 48 48" fill="none" xmlns="http://www.w3.org/2000/svg">
<g id="Integration Logo new/BigQuery" clip-path="url(#clip0_0_20)">
<path id="Vector" d="M10.86 43.647L0.4185 25.5615C-0.1395 24.5955 -0.1395 23.4045 0.4185 22.4385L10.86 4.35375C11.4172 3.3885 12.4462 2.79375 13.56 2.79225H34.4528C35.5628 2.7975 36.5865 3.39225 37.1415 4.35375L47.5815 22.4385C48.1395 23.4045 48.1395 24.5955 47.5815 25.5615L37.14 43.647C36.5828 44.6123 35.5537 45.207 34.44 45.2085H13.5525C12.4402 45.2048 11.415 44.61 10.8578 43.647H10.86Z" fill="var(--fill-0, #4386FA)"/>
<path id="Vector_2" opacity="0.1" d="M30.5227 18.1763C30.5227 18.1763 33.4252 25.1385 29.4682 29.085C25.5112 33.0315 18.306 30.5055 18.306 30.5055L32.9625 45.2025H34.4505C35.565 45.201 36.594 44.6055 37.1505 43.641L44.0625 31.6725L30.5227 18.1763Z" fill="var(--fill-0, black)"/>
<path id="Vector_3" d="M33.9502 32.4225L30.75 29.2147C30.7152 29.179 30.6752 29.1487 30.6315 29.1247C31.9928 27.3713 32.6343 25.1649 32.4254 22.955C32.2165 20.745 31.1729 18.6979 29.5073 17.2306C27.8416 15.7633 25.6791 14.9863 23.4605 15.0578C21.2419 15.1293 19.134 16.0441 17.5663 17.6156C15.9986 19.1872 15.0891 21.2973 15.023 23.5161C14.9569 25.7349 15.7392 27.8954 17.2106 29.5575C18.682 31.2196 20.7317 32.2581 22.9422 32.4616C25.1526 32.665 27.3574 32.0181 29.1075 30.6525C29.1303 30.6938 29.1589 30.7317 29.1922 30.765L32.4 33.9728C32.4942 34.0669 32.6219 34.1197 32.7551 34.1197C32.8883 34.1197 33.016 34.0669 33.1102 33.9728L33.9502 33.1327C34.0444 33.0385 34.0972 32.9108 34.0972 32.7776C34.0972 32.6444 34.0444 32.5167 33.9502 32.4225ZM23.73 30.348C22.432 30.3481 21.1631 29.9634 20.0838 29.2423C19.0045 28.5213 18.1632 27.4964 17.6664 26.2972C17.1696 25.098 17.0396 23.7785 17.2928 22.5054C17.546 21.2323 18.171 20.0629 19.0889 19.1451C20.0067 18.2273 21.1761 17.6023 22.4492 17.3491C23.7222 17.0959 25.0418 17.2259 26.241 17.7227C27.4401 18.2195 28.465 19.0607 29.1861 20.14C29.9071 21.2194 30.2919 22.4882 30.2917 23.7862C30.2916 25.5265 29.6002 27.1954 28.3696 28.4259C27.1391 29.6564 25.4702 30.3478 23.73 30.348ZM19.5353 23.436V26.148C19.953 26.8852 20.5575 27.5002 21.2888 27.9292V23.4195L19.5353 23.436ZM22.8165 21.1875V28.5165C23.3961 28.6233 23.9904 28.6233 24.57 28.5165V21.1875H22.8165ZM27.8895 26.142V24.5355H26.1375V27.9105C26.8677 27.4826 27.4725 26.8701 27.891 26.1345L27.8895 26.142Z" fill="var(--fill-0, white)"/>
</g>
<defs>
<clipPath id="clip0_0_20">
<rect width="48" height="48" fill="white"/>
</clipPath>
</defs>
</svg>
