<svg preserveAspectRatio="none" width="100%" height="100%" overflow="visible" style="display: block;" viewBox="0 0 48.1975 40.4961" fill="none" xmlns="http://www.w3.org/2000/svg">
<g id="Group">
<path id="Vector" fill-rule="evenodd" clip-rule="evenodd" d="M33.7216 35.3084C34.1104 35.7522 34.6102 36.1406 35.0545 36.64C35.5543 37.3058 36.3873 39.1922 36.4429 39.3587C36.4429 39.8025 36.1097 39.7471 35.7764 39.969C35.6098 40.0245 35.4988 40.1909 35.3877 39.9135C35.3322 39.858 35.2211 39.858 35.11 39.858C34.9989 39.9135 34.9989 40.0245 35.0545 40.1909C35.0545 40.3019 34.9989 40.3574 34.9434 40.4129C34.6657 40.5238 34.388 40.5238 34.0548 40.4129C33.7771 40.3574 33.6105 40.3574 33.555 39.9135V39.858C33.1107 38.6374 34.0548 39.3587 32.2221 36.1406L32.1666 35.9742C32 35.4193 31.7223 34.92 31.2225 34.5871C30.8893 34.4206 30.6671 34.0877 30.5005 33.7548C30.1673 32.9781 29.6119 32.4787 28.8899 32.2013C28.4457 32.0348 27.9458 31.8684 27.446 31.6465C26.3908 31.2026 25.1135 30.3703 24.1694 28.9832C24.1138 28.9278 24.0583 28.8723 24.0583 28.8168C24.0027 28.6503 23.3363 27.8736 23.4474 27.9291C24.8358 28.5394 28.1124 29.0942 29.9451 29.3161C30.2228 29.3716 30.445 29.5381 30.556 29.76C30.556 29.8155 30.7226 30.0374 30.7226 30.0929C31.278 30.9807 31.3335 31.1471 31.5557 31.4245C31.9444 31.9239 32.4443 32.3677 32.4998 33.0335C32.5553 34.0877 33.1662 34.6981 33.7216 35.3084ZM48.1055 23.3239C48.05 23.2684 47.9944 23.2129 47.9944 23.1575C47.9944 22.8246 47.8278 22.9355 47.7168 22.991C47.2725 23.2684 46.7171 23.3794 46.5505 24.1007C46.495 24.2671 46.3839 24.3226 46.2728 24.3781C45.1621 25.0439 43.8848 24.2671 43.6071 22.6026C43.4405 21.7704 43.2183 20.9381 42.8851 20.1614C42.663 19.773 42.1631 19.2181 41.8854 18.7743C41.8299 18.7188 41.8299 18.6078 41.8299 18.5523C41.8299 18.1085 41.6078 17.0543 40.386 16.3885C38.8865 15.2788 35.6654 14.1691 33.9438 13.6698C33.2773 13.5033 33.1107 13.8917 33.1107 14.1691C33.1107 14.2246 33.1107 14.2801 33.1107 14.3356C33.1662 14.4465 33.2218 14.724 33.2218 14.724C33.6105 16.2775 34.1659 18.4414 33.8327 18.3859C33.4995 18.2749 32.722 13.7807 30.8337 12.5046L30.7782 12.4491C29.5564 11.284 27.0017 10.7846 26.1131 10.6182C26.0021 10.6182 25.891 10.5072 25.8354 10.4517C25.3356 9.78592 24.5581 9.56398 23.2808 9.39753C22.8365 9.34205 22.3922 9.28657 21.9479 9.23108C21.6147 9.1756 21.4481 8.89818 21.5591 8.56528C21.6147 8.45431 21.6147 8.17689 21.5036 8.17689C21.3925 8.12141 21.1149 8.28786 20.8927 8.28786C20.7261 8.28786 20.5595 8.17689 20.5595 8.17689C20.504 8.12141 20.6706 8.28786 20.5595 8.23238C19.8375 7.56657 21.6147 6.95626 21.2259 6.90077C21.1149 6.90077 20.9482 6.90077 20.8372 6.90077C20.3373 6.90077 19.8375 6.90077 19.3932 7.01174C19.2822 7.01174 19.2266 6.90077 19.2266 6.84529C19.2266 6.7898 19.2822 6.73432 19.2822 6.73432C21.6147 5.4582 22.5033 4.01562 22.5033 4.01562C22.5033 4.01562 23.2252 2.85047 21.5591 2.12918C21.2259 1.96273 20.8372 1.85176 20.3373 1.7408C18.8934 1.46338 17.6161 0.964027 16.6719 0.520159C16.3387 0.409191 16.061 0.242741 15.7278 0.0762899C15.7278 0.0762899 15.6723 0.0208064 15.6168 0.0208064C15.4501 -0.0346772 15.3391 0.0208063 15.228 0.187257C15.1169 0.520159 15.5612 0.686609 15.7834 0.85306C16.783 1.62983 17.8937 2.0737 18.8934 2.7395C19.5043 3.12789 19.5598 3.34982 18.9489 3.73821C18.1159 4.34853 17.1162 4.68143 16.1721 5.06981C16.1166 5.06981 16.061 5.1253 16.0055 5.1253C15.5057 4.7924 15.0059 4.73691 14.506 4.7924C13.673 4.84788 12.8399 5.29175 12.4512 6.06852C12.3401 6.23497 12.1735 6.34594 12.0069 6.29045C11.9514 6.29045 11.9513 6.29045 11.8958 6.29045C11.8403 6.29045 11.7847 6.29045 11.7292 6.29045C9.61882 6.4569 9.23007 7.28916 9.11899 7.67754C9.11899 7.78851 9.00792 7.89948 8.95239 7.89948C4.45394 9.61947 1.28837 8.23238 0.233177 7.56657C0.122104 7.51109 -0.0445052 7.62206 0.0110312 7.78851C1.01069 10.3408 6.17557 10.5072 7.56398 10.5072H7.73059C7.84166 10.5072 7.95273 10.6182 7.8972 10.7291C7.50844 11.7833 7.06415 12.5046 6.78647 12.8375C6.6754 13.004 6.56432 13.2259 6.45325 13.4478L6.39771 13.5588C6.28664 13.9472 6.28664 14.3911 6.39771 14.7794C6.45325 14.8904 6.45325 15.0014 6.39771 15.0569C6.39771 15.1123 6.39771 15.1678 6.39771 15.1678C6.39771 15.1678 6.39771 15.2788 6.39771 15.3898C6.6754 17.0543 7.56398 17.3872 7.56398 17.3872C7.56398 17.3872 7.73059 17.4981 8.28595 17.4427C9.67436 17.3872 12.0624 17.0543 12.6178 16.9988C12.6733 16.9988 12.7289 16.9988 12.7844 16.9988H12.8399C12.8955 16.9988 12.951 16.9988 12.951 17.0543C14.9503 18.1085 18.0048 21.382 19.06 23.2684C19.1155 23.3794 19.1711 23.4904 19.2266 23.6013C19.7264 24.5446 20.2818 25.2658 21.1149 25.9316C21.2259 25.9871 21.5036 26.2091 21.9479 26.4865C22.5033 26.8194 22.9476 26.9858 23.3363 27.1523C24.336 27.5407 25.1135 27.7626 25.7244 27.9291C26.0021 27.9845 26.1687 28.04 26.2797 28.04C26.724 28.151 27.1683 28.2065 27.6681 28.262C29.6119 28.5394 30.556 28.4284 30.8893 29.0387C30.8893 29.0942 31.0003 29.3161 31.0003 29.3716C31.5002 30.7587 31.7778 30.9252 32 31.591C32.1111 31.8684 32.2777 32.0348 32.5553 32.1458C32.9996 32.2568 33.3884 32.5342 33.555 32.9781C33.9438 34.0322 34.7213 34.92 35.7764 35.1974C36.8872 35.5303 37.387 35.4193 38.0534 34.4761C38.3311 34.1432 38.3311 33.8103 38.109 33.4219C37.7202 32.7006 37.1093 32.3677 36.3873 32.3123C36.0541 32.2568 35.7209 32.0903 35.6654 31.7574C35.6098 31.1471 35.2766 30.8142 34.9434 30.4258C34.6102 30.0374 34.6657 29.5381 35.0545 29.3161C35.1656 29.2607 36.3318 28.3174 36.8316 28.0955C36.9983 27.9845 38.0534 27.6516 38.0534 26.9303C37.8868 25.2104 38.1645 23.9897 38.3311 23.9897C38.3867 23.9897 38.2756 24.5446 38.4977 25.6542C38.4977 25.7097 38.5533 25.7652 38.5533 25.8207C38.7754 27.0413 40.2194 28.9832 40.9969 29.8155C41.0524 29.871 41.0524 29.9265 41.0524 29.9265C41.219 30.3148 41.3856 30.6477 41.6078 30.9807C41.7188 31.0916 41.8299 31.369 41.8299 31.5355C42.0521 32.9226 42.7185 34.1432 42.8296 35.5303C42.8851 36.0851 42.9962 36.6955 42.9406 36.9729C42.9406 37.0284 42.8851 37.0838 42.9406 37.1393C42.9962 37.5277 43.1073 38.36 43.2183 38.4154C43.3849 38.4709 44.1069 38.6374 44.4401 38.249C44.4401 38.1935 44.4957 38.1935 44.4957 38.138C44.5512 37.5277 44.8289 37.8051 44.9399 37.9716C44.9955 38.0271 45.051 38.0271 45.1066 38.0271C45.3842 37.9161 45.5509 37.8051 45.7175 37.5832C45.7175 37.5277 45.773 37.5277 45.773 37.4722C45.8841 36.9729 45.8841 36.418 45.6619 35.9742C45.4398 35.5303 45.1621 35.1419 44.8844 34.809C44.218 33.9213 43.8292 32.9226 44.1069 31.6465C44.218 31.0916 44.1069 30.5923 43.8292 30.1484C43.6071 29.871 43.6071 29.5936 43.6626 29.2052C43.8848 28.04 43.9958 26.8194 43.8292 25.5987C43.8292 25.4323 43.7181 25.2104 43.8848 25.0439C44.0514 24.8775 44.218 25.0439 44.3291 25.0994C45.051 25.4323 45.773 25.3768 46.4394 24.9329C46.606 24.822 46.7726 24.711 46.9393 24.711C47.7168 24.711 48.1055 24.2117 48.1611 23.8788C48.2166 23.7678 48.2166 23.4904 48.1055 23.3239Z" fill="var(--fill-0, #EF6A25)"/>
</g>
</svg>
