<svg preserveAspectRatio="none" width="100%" height="100%" overflow="visible" style="display: block;" viewBox="0 0 48 48" fill="none" xmlns="http://www.w3.org/2000/svg">
<g id="Freshdesk" clip-path="url(#clip0_0_127)">
<path id="Vector" d="M23.925 -0.000323396H41.952C42.7486 -0.00672972 43.5385 0.145557 44.2756 0.447652C45.0127 0.749747 45.6823 1.1956 46.2453 1.75921C46.8082 2.32281 47.2533 2.99289 47.5546 3.73034C47.8559 4.46778 48.0073 5.25784 48 6.05443V24.0747C48 37.2912 37.2915 47.9997 24.075 47.9997H23.9385C20.7958 48.0024 17.6833 47.3858 14.779 46.185C11.8748 44.9842 9.23561 43.2229 7.01243 41.0016C4.78925 38.7803 3.02564 36.1426 1.8224 33.2393C0.619167 30.3361 -9.97642e-05 27.2241 -4.01706e-09 24.0814C-4.01705e-09 10.8274 10.6905 0.136177 23.925 -0.000323396Z" fill="var(--fill-0, #25C16F)"/>
<path id="Vector_2" d="M23.925 10.6912C17.8552 10.6912 12.9345 15.6113 12.9345 21.6818V29.1547C12.978 31.155 14.589 32.766 16.5892 32.8095H19.698V24.225H15.498V21.825C15.753 17.3055 19.4932 13.77 24.021 13.77C28.5487 13.77 32.28 17.2988 32.535 21.825V24.225H28.275V32.8155H31.0837V32.952C31.0537 34.8075 29.5575 36.3045 27.7087 36.327H24.354C24.081 36.327 23.781 36.4635 23.781 36.7357C23.7876 36.8856 23.8501 37.0275 23.9562 37.1336C24.0622 37.2397 24.2042 37.3021 24.354 37.3087H27.729C30.1327 37.2937 32.0775 35.349 32.0925 32.9452V32.6722C32.8954 32.4914 33.6121 32.0409 34.1232 31.3958C34.6342 30.7507 34.9089 29.95 34.9012 29.127V21.825C35.0377 15.6345 30.1282 10.698 23.9107 10.698L23.925 10.6912Z" fill="var(--fill-0, white)"/>
</g>
<defs>
<clipPath id="clip0_0_127">
<rect width="48" height="48" fill="white"/>
</clipPath>
</defs>
</svg>
