<svg preserveAspectRatio="none" width="100%" height="100%" overflow="visible" style="display: block;" viewBox="0 0 43.75 48" fill="none" xmlns="http://www.w3.org/2000/svg">
<g id="Group">
<path id="Vector" d="M43.75 21.3698H23.8432V28.418H35.5398L43.75 21.5935V21.3698Z" fill="var(--fill-0, #5B6670)"/>
<path id="Vector_2" d="M8.66002 24.0545V23.9426C8.66002 14.9924 15.1832 7.49667 23.8432 7.49667C28.6793 7.38479 33.403 9.17482 37.0019 12.5311L42.1754 6.37789C37.2269 2.23844 32.2783 0.000893819 24.0681 0.000893819C10.9094 -0.110983 0.112468 10.2936 0 23.3832C0 23.607 0 23.8307 0 24.0545V24.1664C0 34.2353 5.39846 42.6261 14.1709 46.2062L21.144 40.3886C13.4961 38.9342 8.66002 32.5572 8.66002 24.0545Z" fill="var(--fill-0, #5B6670)"/>
<path id="Vector_3" d="M43.75 40.8364V21.5935L35.5398 28.418H35.8772V37.1445C32.6157 39.4939 28.6793 40.7245 24.6305 40.6126C23.5058 40.6126 22.3811 40.5008 21.2564 40.277L14.2834 46.0946C17.32 47.3253 20.6941 47.9965 24.4055 47.9965C31.3785 48.1084 38.3515 45.5352 43.75 40.8364Z" fill="var(--fill-0, #00B2E3)"/>
</g>
</svg>
