<svg preserveAspectRatio="none" width="100%" height="100%" overflow="visible" style="display: block;" viewBox="0 0 44.3538 48" fill="none" xmlns="http://www.w3.org/2000/svg">
<path id="Gong Logo" d="M43.2601 20.5337H30.2512C29.6361 20.5337 29.1329 21.0556 29.1516 21.6706C29.1516 21.7824 29.1702 21.8943 29.2075 22.0061L32.3385 30.1134C32.4504 30.3929 32.3012 30.7098 32.0217 30.8029C31.9472 30.8216 31.8726 30.8402 31.7981 30.8402L27.791 30.5979C27.6046 30.5793 27.4369 30.6725 27.325 30.8216L24.2126 35.2387C24.0449 35.4996 23.7094 35.5741 23.4671 35.4064C23.4671 35.4064 23.4671 35.4064 23.4484 35.4064L18.845 32.2753C18.6586 32.1448 18.4163 32.1448 18.2486 32.2753L11.8746 36.5992C11.6323 36.767 11.2968 36.7111 11.1291 36.4687C11.0359 36.3383 11.0173 36.1706 11.0546 36.0214L12.8251 29.6661C12.8997 29.4052 12.7692 29.1256 12.5083 29.0324L9.1349 27.6533C8.85529 27.5414 8.72483 27.2432 8.83667 26.9636C8.85537 26.9077 8.8926 26.8705 8.92991 26.8146L11.9119 23.1244C12.061 22.938 12.061 22.6771 11.9305 22.4907L9.43305 18.8564C9.26537 18.6141 9.32129 18.2786 9.56351 18.1108C9.63813 18.0549 9.73129 18.0177 9.84313 18.0177L13.7383 17.7195C14.0366 17.7009 14.2416 17.4585 14.2416 17.1603L13.9433 11.6996C13.9247 11.4013 14.167 11.1404 14.4652 11.1218C14.5397 11.1218 14.6143 11.1404 14.6889 11.159L19.516 13.1533C19.721 13.2465 19.9632 13.1906 20.1124 13.0042L23.4298 9.27667C23.6348 9.05306 23.9703 9.03444 24.194 9.23944C24.2499 9.29536 24.2871 9.35121 24.3244 9.42583L26.3187 14.5697C26.5423 15.1103 27.176 15.3712 27.7164 15.1475C27.791 15.1103 27.8842 15.0729 27.9401 15.017L35.7678 9.20213C36.2337 8.84806 36.3456 8.19571 35.9914 7.71114C35.7678 7.3943 35.3764 7.22657 34.9851 7.28248L29.8225 7.97207C29.5802 8.00934 29.3566 7.86024 29.2633 7.63659L26.5423 0.66618C26.3187 0.125694 25.7036 -0.13523 25.1631 0.0697824C25.014 0.125695 24.8836 0.218882 24.7717 0.349345L18.8823 6.74199C18.7332 6.90973 18.4909 6.94701 18.2858 6.87246L10.5327 3.59226C9.99221 3.36861 9.35852 3.6109 9.11629 4.17002C9.06037 4.28185 9.04167 4.41231 9.04167 4.54277L8.76214 12.5383C8.74352 12.8178 8.53853 13.0228 8.25893 13.0601L1.1767 13.526C0.580295 13.5633 0.151634 14.0665 0.188909 14.6629C0.207546 14.8493 0.263459 15.0356 0.375284 15.1848L5.09056 22.1365C5.22103 22.3415 5.22103 22.6025 5.05329 22.7888L0.263459 28.2869C-0.127928 28.7342 -0.0720153 29.4052 0.356646 29.7779C0.449833 29.8525 0.543021 29.9084 0.636209 29.9642L6.17154 32.3498C6.41382 32.4431 6.54428 32.7226 6.46973 32.9649L2.96589 46.6635C2.8168 47.2412 3.1709 47.819 3.73003 47.9681C4.04686 48.0426 4.3637 47.9867 4.62462 47.8003L17.8013 38.3511C17.9877 38.2207 18.23 38.2207 18.4163 38.3511L24.4176 42.5632C24.9022 42.8987 25.5731 42.7869 25.9086 42.3022L25.9273 42.2836L29.6734 36.5247C29.7852 36.3569 29.9902 36.2637 30.1952 36.3011L39.1599 37.382C39.8867 37.4938 40.6136 36.8787 40.3526 36.2078L36.6251 26.535C36.5134 26.2554 36.6624 25.9386 36.942 25.8267L43.7633 22.6025C44.7697 22.0993 44.4156 20.5337 43.2601 20.5337Z" fill="var(--fill-0, #8039E9)"/>
</svg>
