<svg preserveAspectRatio="none" width="100%" height="100%" overflow="visible" style="display: block;" viewBox="0 0 48 48" fill="none" xmlns="http://www.w3.org/2000/svg">
<path id="Hubspot" fill-rule="evenodd" clip-rule="evenodd" d="M34.8697 34.5893C31.1517 34.5893 28.1376 31.7132 28.1376 28.1657C28.1376 24.6176 31.1517 21.7415 34.8697 21.7415C38.5878 21.7415 41.6019 24.6176 41.6019 28.1657C41.6019 31.7132 38.5878 34.5893 34.8697 34.5893ZM36.8851 15.798V10.0833C38.4483 9.37871 39.5432 7.86973 39.5432 6.11851V5.9866C39.5432 3.56964 37.471 1.5922 34.9382 1.5922H34.8006C32.2679 1.5922 30.1956 3.56964 30.1956 5.9866V6.11851C30.1956 7.86973 31.2905 9.37933 32.8537 10.0839V15.798C30.5264 16.1414 28.3999 17.0574 26.6461 18.4054L10.2035 6.19987C10.312 5.80229 10.3882 5.39299 10.3888 4.96274C10.3914 2.22587 8.06987 0.00370168 5.20056 3.21105e-06C2.33253 -0.00307885 0.00323312 2.21292 3.36586e-06 4.95041C-0.00322639 7.68789 2.31832 9.91006 5.18764 9.91314C6.12233 9.91437 6.9879 9.66103 7.74625 9.24926L23.9202 21.2564C22.545 23.2375 21.7388 25.6107 21.7388 28.1657C21.7388 30.8403 22.6244 33.3146 24.1205 35.3494L19.2022 40.0434C18.8133 39.9318 18.4103 39.8541 17.9826 39.8541C15.6256 39.8541 13.7142 41.6775 13.7142 43.9268C13.7142 46.1767 15.6256 48 17.9826 48C20.3404 48 22.2511 46.1767 22.2511 43.9268C22.2511 43.5199 22.1697 43.1347 22.0528 42.7636L26.9181 38.1208C29.1266 39.729 31.8771 40.6955 34.8697 40.6955C42.1218 40.6955 48 35.0856 48 28.1657C48 21.9011 43.1773 16.7257 36.8851 15.798Z" fill="var(--fill-0, #FF7A59)"/>
</svg>
