<svg preserveAspectRatio="none" width="100%" height="100%" overflow="visible" style="display: block;" viewBox="0 0 48 48" fill="none" xmlns="http://www.w3.org/2000/svg">
<g id="Jira">
<path id="Vector" d="M43.6387 5.14188H23.0004C23.0004 7.61276 23.982 9.98243 25.7291 11.7296C27.4763 13.4768 29.846 14.4583 32.3168 14.4583H36.1187V18.129C36.122 23.2697 40.2884 27.4362 45.4291 27.4396V6.93226C45.4291 5.94374 44.6277 5.14188 43.6387 5.14188Z" fill="var(--fill-0, #2684FF)"/>
<path id="Vector_2" d="M33.4269 15.4252H12.7888C12.792 20.5658 16.9584 24.7324 22.0992 24.7358H25.901V28.4182C25.9075 33.5589 30.0768 37.7226 35.2174 37.7226V17.2159C35.2174 16.227 34.4157 15.4252 33.4269 15.4252Z" fill="url(#paint0_linear_0_24)"/>
<path id="Vector_3" d="M23.2092 25.7026H2.57094C2.57094 30.848 6.74221 35.0191 11.8874 35.0191H15.7011V38.6896C15.7045 43.8255 19.8636 47.9903 24.9998 48V27.4932C24.9998 26.5043 24.1981 25.7026 23.2092 25.7026Z" fill="url(#paint1_linear_0_24)"/>
</g>
<defs>
<linearGradient id="paint0_linear_0_24" x1="5626.61" y1="25.6908" x2="3400.16" y2="2627.62" gradientUnits="userSpaceOnUse">
<stop offset="0.18" stop-color="#0052CC"/>
<stop offset="1" stop-color="#2684FF"/>
</linearGradient>
<linearGradient id="paint1_linear_0_24" x1="5767.27" y1="54.7138" x2="3191.84" y2="2892.61" gradientUnits="userSpaceOnUse">
<stop offset="0.18" stop-color="#0052CC"/>
<stop offset="1" stop-color="#2684FF"/>
</linearGradient>
</defs>
</svg>
