<svg width="48" height="48" viewBox="0 0 48 48" fill="none" xmlns="http://www.w3.org/2000/svg">
  <path d="M33.5 7.3c-2-1.5-4.4-2.3-6.7-2.7-1.6-.3-3.2-.3-4.8-.1-1.3.1-2.7.5-3.9 1-1.7-.5-3.5-.7-5.3-.5-2.2.3-4.2 1.2-5.6 2.9C5.4 10.2 4.7 13 5 16c.3 2.6 1.1 5.3 2.2 7.7.8 1.8 1.8 3.5 3.2 4.7.7.6 1.5 1 2.4 1 .6 0 1.2-.2 1.7-.5.3.5.7.9 1.2 1.2.9.5 2 .6 3 .4l.2-.1c-.1 1.3-.1 2.5 0 3.8.1 1.8.6 3.8 2.2 4.8.8.5 1.7.7 2.6.7.8 0 1.6-.2 2.3-.5 2.1-.9 3.2-3 3.6-5.2.3-1.4.4-2.9.4-4.3h.4c1.3 0 2.6-.3 3.7-.9 0 0 .1 0 .1-.1 1.5 2.1 3.3 3.2 5.2 3.2.6 0 1.2-.1 1.8-.4 2.3-.9 3.4-3.5 3.8-5.4.5-2.1.5-4.3.2-6.4-.2-1.2-.4-2.6-1.2-3.6-.3-.4-.7-.7-1.2-.8.1-1.2 0-2.4-.2-3.5-.3-2.1-1.2-4-2.8-5.3z" fill="#336791"/>
  <path d="M38 22.8c-.7-.2-1 .4-1.1 1-.3 1.6-.5 3.3-.3 5 .1.7.2 1.5.2 2.2 0 .6-.1 1.2-.3 1.8-.3.9-.8 1.5-1.5 1.4-.9-.1-1.8-1-2.6-2.3l-.6-1c-.2-.3-.1-.7.1-1 .6-.7 1-1.6 1.1-2.5.2-1.5-.3-3.1-.5-4.6-.2-1.6-.2-3.2.2-4.7.5-1.7 1.6-2.9 3.2-3.3.5-.1.7-.1.9.4.5 1.5.8 3.2.9 4.8 0 .9 0 1.8.3 2.8z" fill="white"/>
  <path d="M14.5 27.4c.5.6.5 1.4.1 2-.4.5-1 .7-1.6.5-1-.3-1.7-1.2-2.3-2.1-1.6-2.4-2.7-5.2-3.2-8.1-.3-1.7-.3-3.5.3-5.2.4-1.1 1.1-2 2.1-2.5 1.3-.6 2.8-.4 4.2 0 .3.1.3.2.2.5-.6 1.3-.8 2.7-.9 4.1-.1 2 .2 4 .5 6 .2 1.7.5 3.3.6 4.8z" fill="white"/>
  <path d="M19.5 28.6c-.8.4-1.8.2-2.3-.5-.3-.4-.3-.8-.2-1.2l.3-1.2c.3-1.5.3-3 .1-4.5-.2-1.8-.5-3.5-.5-5.3 0-1.5.2-3 .8-4.4.2-.4.4-.5.8-.4 1.7.4 3.3.5 5 .3.8-.1 1.5-.3 2.2-.5.4-.1.5 0 .5.4-.2 2-.1 4 .2 6 .2 1.3.5 2.6.5 3.9 0 1.1-.3 2.1-1 2.9-.2.2-.4.3-.4.6v3.3c0 1.8-.1 3.6-.5 5.3-.3 1.5-1 3-2.4 3.6-1 .4-2.2.4-3-.3-1-.9-1.2-2.4-1.3-3.8-.1-1.7 0-3.4.2-5l.1-1c0-.1-.1-.2-.2-.1l.1 1z" fill="white"/>
</svg>
