<svg preserveAspectRatio="none" width="100%" height="100%" overflow="visible" style="display: block;" viewBox="0 0 42 47" fill="none" xmlns="http://www.w3.org/2000/svg">
<g id="Integration Logo new/Redshift" clip-path="url(#clip0_0_13)">
<path id="Vector" d="M21 35.9358L38.64 40.1912V6.71391L21 10.9694V35.9358Z" fill="var(--fill-0, #205B97)"/>
<path id="Vector_2" d="M38.64 6.71391L42 8.4161V38.489L38.64 40.1912V6.71391ZM21 35.9358L3.36 40.1912V6.71391L21 10.9694V35.9358Z" fill="var(--fill-0, #5193CE)"/>
<path id="Vector_3" d="M3.36 6.71391L0 8.4161V38.489L3.36 40.1912V6.71391Z" fill="var(--fill-0, #205B97)"/>
<path id="Vector_4" d="M25.4809 47L32.2009 43.5956V3.40438L25.4809 0L23.4264 22.3182L25.4809 47Z" fill="var(--fill-0, #5193CE)"/>
<path id="Vector_5" d="M16.5191 47L9.79913 43.5956V3.40438L16.5191 0L18.5736 22.3182L16.5191 47Z" fill="var(--fill-0, #205B97)"/>
<path id="Vector_6" d="M16.5191 0H25.5719V46.9051H16.5191V0Z" fill="var(--fill-0, #2E73B7)"/>
</g>
<defs>
<clipPath id="clip0_0_13">
<rect width="42" height="47" fill="white"/>
</clipPath>
</defs>
</svg>
