<svg preserveAspectRatio="none" width="100%" height="100%" overflow="visible" style="display: block;" viewBox="0 0 47.9995 48" fill="none" xmlns="http://www.w3.org/2000/svg">
<g id="Group">
<path id="Vector" d="M25.0863 0C30.2288 1.43026 34.9142 5.03451 36.8569 9.43974C39.8281 16.5911 39.1424 25.6303 35.8855 31.0081C33.1428 35.4133 28.9146 37.759 24.0578 37.7017C16.5154 37.6445 10.4016 31.6374 10.3445 24.0856C10.3445 16.5338 16.2869 10.2979 24.0578 10.2979C25.3148 10.2979 27.1273 10.4722 29.1843 11.3304C29.1843 11.3304 27.7055 10.4545 23.9076 9.86611C12.994 8.43585 0.116606 16.7055 3.08782 35.7566C7.2018 43.0795 15.087 48.057 24.0578 47.9995C37.2568 47.9424 48.0561 37.1296 47.9993 23.8568C47.9993 11.156 37.6568 0.343263 25.0863 0Z" fill="url(#paint0_linear_0_230)"/>
<path id="Vector_2" d="M34.0567 10.1257C32.2283 6.2926 28.4571 3.26042 23.8289 2.059C22.8003 1.77295 21.7147 1.65853 20.5148 1.60132C18.7435 1.60132 17.0293 1.83016 15.258 2.28785C10.8583 3.60369 7.77285 6.17817 5.94439 8.18051C3.6017 10.8694 2.05895 13.6727 1.14473 16.476C1.14473 16.5333 1.08759 16.5905 1.08759 16.7049C1.03045 16.9337 0.801895 17.6203 0.801895 17.7919C0.744755 17.9063 0.744755 18.078 0.687619 18.1924C0.630479 18.4212 0.573338 18.65 0.516202 18.8789C0.516202 18.9361 0.516202 18.9933 0.459062 19.0505C-1.02655 26.4307 1.44141 33.0536 2.92702 35.5137C3.2986 36.129 3.60373 36.6424 3.90954 37.1134C0.538349 18.806 10.2298 10.0685 21.2576 9.83962C27.0286 9.72524 32.7996 12.0709 35.5994 16.7621C35.428 14.1876 35.2566 12.7574 34.0567 10.1257Z" fill="url(#paint1_linear_0_230)"/>
</g>
<defs>
<linearGradient id="paint0_linear_0_230" x1="3056.44" y1="-1248.21" x2="-942.902" y2="907.433" gradientUnits="userSpaceOnUse">
<stop stop-color="#FF7BFF"/>
<stop offset="0.350158" stop-color="#AA00FF"/>
<stop offset="1" stop-color="#8800CC"/>
</linearGradient>
<linearGradient id="paint1_linear_0_230" x1="1290.81" y1="-686.014" x2="3971.68" y2="1606.06" gradientUnits="userSpaceOnUse">
<stop offset="0.0354358" stop-color="#FF7BFF"/>
<stop offset="0.576537" stop-color="#8800CC"/>
<stop offset="1" stop-color="#311B92"/>
</linearGradient>
</defs>
</svg>
