<svg width="48" height="48" viewBox="0 0 48 48" fill="none" xmlns="http://www.w3.org/2000/svg">
  <path d="M10.08 30.24c0 2.784-2.256 5.04-5.04 5.04S0 33.024 0 30.24s2.256-5.04 5.04-5.04h5.04v5.04zm2.52 0c0-2.784 2.256-5.04 5.04-5.04s5.04 2.256 5.04 5.04v12.6c0 2.784-2.256 5.04-5.04 5.04s-5.04-2.256-5.04-5.04V30.24z" fill="#E01E5A"/>
  <path d="M17.64 10.08c-2.784 0-5.04-2.256-5.04-5.04S14.856 0 17.64 0s5.04 2.256 5.04 5.04v5.04H17.64zm0 2.52c2.784 0 5.04 2.256 5.04 5.04s-2.256 5.04-5.04 5.04H5.04C2.256 22.68 0 20.424 0 17.64s2.256-5.04 5.04-5.04h12.6z" fill="#36C5F0"/>
  <path d="M37.8 17.64c0-2.784 2.256-5.04 5.04-5.04S47.88 14.856 47.88 17.64s-2.256 5.04-5.04 5.04H37.8V17.64zm-2.52 0c0 2.784-2.256 5.04-5.04 5.04s-5.04-2.256-5.04-5.04V5.04C25.2 2.256 27.456 0 30.24 0s5.04 2.256 5.04 5.04v12.6z" fill="#2EB67D"/>
  <path d="M30.24 37.8c2.784 0 5.04 2.256 5.04 5.04s-2.256 5.04-5.04 5.04-5.04-2.256-5.04-5.04V37.8h5.04zm0-2.52c-2.784 0-5.04-2.256-5.04-5.04s2.256-5.04 5.04-5.04h12.6c2.784 0 5.04 2.256 5.04 5.04s-2.256 5.04-5.04 5.04H30.24z" fill="#ECB22E"/>
</svg>
