<svg preserveAspectRatio="none" width="100%" height="100%" overflow="visible" style="display: block;" viewBox="0 0 48 48" fill="none" xmlns="http://www.w3.org/2000/svg">
<path id="Vector" fill-rule="evenodd" clip-rule="evenodd" d="M46.497 20.717L40.8162 24L46.497 27.2553C46.8367 27.4523 47.1345 27.7144 47.3732 28.0267C47.6119 28.3391 47.7869 28.6955 47.8883 29.0757C47.9897 29.4559 48.0154 29.8524 47.964 30.2425C47.9126 30.6327 47.7851 31.0089 47.5887 31.3496C47.3923 31.6903 47.131 31.9889 46.8196 32.2283C46.5082 32.4678 46.1528 32.6433 45.7737 32.745C45.3947 32.8467 44.9994 32.8725 44.6104 32.8209C44.2214 32.7694 43.8463 32.6415 43.5066 32.4445L33.3281 26.5635C32.8616 26.2928 32.4766 25.9008 32.2137 25.4289C31.9509 24.957 31.8199 24.4227 31.8346 23.8824C31.8426 23.6483 31.8785 23.416 31.9415 23.1905C32.1499 22.4342 32.6451 21.7897 33.3212 21.395L43.4997 15.5347C43.8409 15.337 44.2177 15.2086 44.6084 15.1571C44.9991 15.1055 45.3961 15.1317 45.7767 15.2342C46.1573 15.3367 46.514 15.5135 46.8264 15.7544C47.1388 15.9954 47.4008 16.2957 47.5973 16.6383C47.7947 16.9779 47.9229 17.3535 47.9743 17.7431C48.0258 18.1328 47.9996 18.5289 47.8973 18.9083C47.7949 19.2878 47.6184 19.6431 47.3781 19.9535C47.1377 20.264 46.8382 20.5235 46.497 20.717ZM41.1198 36.6304L30.9447 30.7598C30.4895 30.4977 29.9738 30.3597 29.4489 30.3595C28.9241 30.3593 28.4083 30.4968 27.9528 30.7585C27.4974 31.0201 27.1181 31.3967 26.8527 31.8509C26.5873 32.3051 26.4451 32.821 26.4401 33.3474V45.075C26.4664 45.8542 26.7936 46.5926 27.3525 47.1345C27.9114 47.6763 28.6583 47.9792 29.4357 47.9792C30.213 47.9792 30.96 47.6763 31.5189 47.1345C32.0778 46.5926 32.4049 45.8542 32.4313 45.075V38.502L38.1259 41.785C38.4656 41.9822 38.8407 42.1103 39.2298 42.1621C39.6189 42.2138 40.0143 42.1882 40.3935 42.0867C40.7727 41.9852 41.1283 41.8098 41.4399 41.5705C41.7516 41.3311 42.0131 41.0326 42.2097 40.6918C42.4063 40.3511 42.534 39.9749 42.5856 39.5846C42.6373 39.1944 42.6117 38.7978 42.5105 38.4174C42.4093 38.0371 42.2344 37.6805 41.9958 37.3679C41.7572 37.0554 41.4595 36.793 41.1198 36.5958V36.6304ZM29.3926 25.1589L25.1501 29.3621C25.0049 29.4975 24.8168 29.5771 24.6189 29.587H23.3738C23.1763 29.5751 22.9888 29.4958 22.8426 29.3621L18.6242 25.1451C18.4923 25.0007 18.4143 24.8148 18.4035 24.6192V23.3738C18.4149 23.1774 18.4928 22.9906 18.6242 22.8445L22.8426 18.6275C22.9892 18.4949 23.1767 18.4167 23.3738 18.4061H24.6189C24.8163 18.4153 25.0043 18.4937 25.1501 18.6275L29.3788 22.8445C29.5092 22.991 29.5859 23.1777 29.5961 23.3738V24.6192C29.5865 24.8145 29.5097 25.0003 29.3788 25.1451L29.3926 25.1589ZM26.0124 23.9896C25.9961 23.7879 25.9122 23.5977 25.7744 23.4499L24.5499 22.2357C24.4032 22.1033 24.2158 22.0252 24.0188 22.0143H23.9739C23.7778 22.0246 23.5912 22.1028 23.4462 22.2357L22.2217 23.4499C22.0903 23.5985 22.0136 23.7878 22.0044 23.9862V24.0311C22.0131 24.2266 22.09 24.4127 22.2217 24.557L23.4531 25.7678C23.5985 25.9001 23.7848 25.9783 23.9808 25.9892H24.0257C24.2227 25.9783 24.4101 25.9001 24.5568 25.7678L25.7813 24.5466C25.9135 24.402 25.9926 24.2165 26.0055 24.0208L26.0124 23.9896ZM6.8729 11.3696L17.0514 17.2229C17.5072 17.4849 18.0233 17.6227 18.5486 17.6227C19.0738 17.6227 19.5899 17.4848 20.0457 17.2229C20.5014 16.961 20.8809 16.584 21.1465 16.1295C21.412 15.6749 21.5544 15.1586 21.5595 14.6318V2.91467C21.5331 2.13547 21.206 1.39701 20.6471 0.855142C20.0882 0.313273 19.3412 0.0103783 18.5639 0.0103783C17.7865 0.0103783 17.0396 0.313273 16.4807 0.855142C15.9218 1.39701 15.5946 2.13547 15.5683 2.91467V9.48762L9.86679 6.20115C9.52707 6.00398 9.15196 5.87585 8.76288 5.82409C8.3738 5.77232 7.97836 5.79792 7.59914 5.89943C7.21992 6.00094 6.86435 6.17638 6.55273 6.41571C6.24111 6.65505 5.97954 6.95361 5.78296 7.29433C5.58638 7.63506 5.45864 8.01128 5.40702 8.40152C5.35541 8.79177 5.38093 9.18838 5.48214 9.56873C5.58335 9.94908 5.75827 10.3057 5.99689 10.6183C6.23552 10.9308 6.53319 11.1932 6.8729 11.3903V11.3696ZM29.2098 17.6242C29.8108 17.6719 30.4122 17.5356 30.9344 17.2333L41.1094 11.3523C41.4491 11.1551 41.7468 10.8927 41.9854 10.5802C42.2241 10.2677 42.399 9.91102 42.5002 9.53068C42.6014 9.15033 42.6269 8.75371 42.5753 8.36347C42.5237 7.97323 42.3959 7.597 42.1994 7.25628C42.0028 6.91555 41.7412 6.617 41.4296 6.37766C41.118 6.13832 40.7624 5.96289 40.3832 5.86138C39.6173 5.65637 38.8016 5.7649 38.1155 6.16309L32.4209 9.47724V2.90429C32.3946 2.12509 32.0674 1.38663 31.5085 0.844763C30.9496 0.302895 30.2027 0 29.4253 0C28.648 0 27.9011 0.302895 27.3422 0.844763C26.7833 1.38663 26.4561 2.12509 26.4297 2.90429V14.6318C26.4288 15.3911 26.7153 16.1224 27.2314 16.6779C27.7475 17.2334 28.4546 17.5716 29.2098 17.6242ZM18.7898 30.3688C18.1887 30.3198 17.5869 30.4562 17.0652 30.7598L6.8729 36.6166C6.18682 37.0148 5.68655 37.67 5.48214 38.4382C5.27774 39.2063 5.38595 40.0245 5.78296 40.7126C6.17998 41.4007 6.83327 41.9025 7.59914 42.1075C8.36501 42.3125 9.1807 42.204 9.86679 41.8058L15.5683 38.5228V45.0957C15.5946 45.8749 15.9218 46.6134 16.4807 47.1552C17.0396 47.6971 17.7865 48 18.5639 48C19.3412 48 20.0882 47.6971 20.6471 47.1552C21.206 46.6134 21.5331 45.8749 21.5595 45.0957V33.3474C21.5579 32.592 21.2716 31.8651 20.7579 31.3126C20.2441 30.7601 19.5411 30.423 18.7898 30.3688ZM16.0305 24.8787C16.2269 24.2307 16.1973 23.5348 15.9465 22.9059C15.6957 22.277 15.2387 21.7526 14.6508 21.4193L4.48262 15.5417C3.79591 15.1471 2.9815 15.041 2.21708 15.2465C1.45266 15.4519 0.800276 15.9523 0.402247 16.6383C0.205194 16.9778 0.0772169 17.3532 0.0257194 17.7426C-0.0257781 18.132 0.000225813 18.5279 0.102227 18.9072C0.204228 19.2865 0.380202 19.6417 0.619968 19.9524C0.859735 20.263 1.15854 20.5229 1.49908 20.717L7.17988 24L1.49908 27.2553C1.15937 27.4518 0.861568 27.7135 0.622682 28.0254C0.383795 28.3373 0.208502 28.6934 0.106812 29.0733C0.00512089 29.4531 -0.0209761 29.8494 0.0300106 30.2393C0.0809973 30.6293 0.208069 31.0054 0.403971 31.3461C0.599873 31.6869 0.860768 31.9856 1.17176 32.2252C1.48275 32.4647 1.83775 32.6406 2.21649 32.7426C2.59523 32.8445 2.99029 32.8707 3.37911 32.8196C3.76793 32.7684 4.14291 32.641 4.48262 32.4445L14.6508 26.5635C15.3056 26.1968 15.7974 25.5947 16.027 24.8787H16.0305Z" fill="var(--fill-0, #29B5E8)"/>
</svg>
